<?xml version="1.0" standalone="no"?><!DOCTYPE svg PUBLIC "-//W3C//DTD SVG 1.1//EN" "http://www.w3.org/Graphics/SVG/1.1/DTD/svg11.dtd"><svg t="1654173191685" class="icon" viewBox="0 0 1024 1024" version="1.1" xmlns="http://www.w3.org/2000/svg" p-id="3808" xmlns:xlink="http://www.w3.org/1999/xlink" width="64" height="64"><defs><style type="text/css"></style></defs><path d="M785.066667 529.408c0-9.443556 5.006222-18.204444 13.198222-22.869333 8.192-4.778667 18.318222-4.778667 26.396444 0 8.192 4.778667 13.198222 13.425778 13.198223 22.869333V684.942222c0 88.177778-71.452444 159.744-159.744 159.744H345.201778C257.024 844.686222 185.457778 773.233778 185.457778 684.942222V351.914667c0-88.177778 71.452444-159.744 159.744-159.744h144.611555c14.563556 0 26.510222 11.832889 26.510223 26.396444 0 14.563556-11.832889 26.396444-26.510223 26.396445H345.201778c-28.330667 0-55.523556 11.264-75.548445 31.288888a106.876018 106.876018 0 0 0-31.288889 75.548445v333.027555c0 28.330667 11.264 55.523556 31.288889 75.548445 20.024889 20.024889 47.217778 31.288889 75.548445 31.288889h333.027555c58.936889 0 106.837333-47.786667 106.837334-106.837334V529.408z" fill="#2c2c2c" p-id="3809"></path><path d="M678.229333 855.153778H345.201778c-93.752889 0-170.097778-76.344889-170.097778-170.097778V351.914667c0-93.752889 76.344889-170.097778 170.097778-170.097778h144.611555c20.366222 0 36.864 16.497778 36.864 36.864s-16.497778 36.864-36.864 36.864H345.201778c-25.713778 0-49.948444 10.012444-68.152889 28.216889s-28.216889 42.439111-28.216889 68.152889V684.942222c0 25.713778 10.012444 49.948444 28.216889 68.152889s42.439111 28.216889 68.152889 28.216889h333.027555c53.134222 0 96.369778-43.235556 96.369778-96.369778V529.408c0-13.084444 7.054222-25.372444 18.432-31.971556 5.575111-3.185778 11.946667-4.892444 18.432-4.892444s12.856889 1.706667 18.432 4.892444c11.377778 6.599111 18.432 18.773333 18.432 31.971556V684.942222c0 93.866667-76.231111 170.211556-170.097778 170.211556zM345.201778 202.638222c-82.261333 0-149.276444 67.015111-149.276445 149.276445V684.942222c0 82.261333 67.015111 149.276444 149.276445 149.276445h333.027555c82.261333 0 149.276444-67.015111 149.276445-149.276445V529.408c0-5.688889-3.072-11.036444-8.078222-13.880889-4.892444-2.844444-11.150222-2.844444-16.042667 0-4.892444 2.844444-7.964444 8.192-7.964445 13.880889V684.942222c0 64.625778-52.565333 117.191111-117.191111 117.191111H345.201778c-31.288889 0-60.757333-12.174222-82.830222-34.360889-22.186667-22.186667-34.360889-51.541333-34.360889-82.830222V351.914667c0-31.288889 12.174222-60.757333 34.360889-82.830223 22.186667-22.186667 51.541333-34.360889 82.830222-34.360888h144.611555c8.874667 0 16.042667-7.168 16.042667-16.042667s-7.168-16.042667-16.042667-16.042667H345.201778zM785.066667 245.191111H645.006222c-14.563556 0-26.396444-11.832889-26.396444-26.396444 0-14.563556 11.832889-26.396444 26.396444-26.396445h166.570667c14.563556 0 26.510222 11.832889 26.510222 26.396445v166.570666c0 9.443556-5.006222 18.204444-13.198222 22.869334-8.192 4.778667-18.318222 4.778667-26.396445 0-8.192-4.778667-13.198222-13.425778-13.198222-22.869334V245.191111z" fill="#2c2c2c" p-id="3810"></path><path d="M811.463111 420.522667c-6.144 0-12.288-1.592889-17.635555-4.664889-10.808889-6.257778-17.635556-17.976889-17.635556-30.492445V253.952H645.006222c-19.456 0-35.271111-15.815111-35.271111-35.271111s15.815111-35.271111 35.271111-35.271111h166.570667c19.456 0 35.271111 15.815111 35.271111 35.271111v166.570667c0 12.515556-6.712889 24.234667-17.635556 30.492444-5.461333 3.072-11.605333 4.778667-17.749333 4.778667zM645.006222 201.045333c-9.784889 0-17.635556 7.964444-17.635555 17.635556 0 9.784889 7.964444 17.635556 17.635555 17.635555h148.821334v148.821334c0 6.257778 3.413333 12.174222 8.874666 15.36 5.347556 3.072 12.288 3.072 17.635556 0 5.461333-3.185778 8.874667-8.988444 8.874666-15.36V218.680889c0-9.784889-7.964444-17.635556-17.635555-17.635556H645.006222z" fill="#2c2c2c" p-id="3811"></path><path d="M530.432 537.144889c-10.467556 9.671111-26.624 9.443556-36.750222-0.682667-10.126222-10.126222-10.353778-26.282667-0.682667-36.750222l299.804445-299.804444c10.467556-9.671111 26.624-9.443556 36.750222 0.682666 10.126222 10.126222 10.353778 26.282667 0.682666 36.750222L530.432 537.144889z m0 0" fill="#2c2c2c" p-id="3812"></path><path d="M512.341333 553.073778c-9.443556 0-18.204444-3.640889-24.917333-10.353778a35.180089 35.180089 0 0 1-0.910222-48.924444l0.227555-0.227556 299.918223-299.918222 0.113777-0.113778c6.485333-6.144 15.018667-9.443556 24.007111-9.443556 9.443556 0 18.204444 3.640889 24.917334 10.353778a35.180089 35.180089 0 0 1 0.910222 48.924445l-0.227556 0.227555-299.918222 299.918222-0.113778 0.113778c-6.485333 6.030222-15.018667 9.443556-24.007111 9.443556z m-12.970666-47.217778c-6.371556 7.054222-6.257778 17.749333 0.568889 24.462222 3.299556 3.299556 7.736889 5.233778 12.515555 5.233778 4.437333 0 8.647111-1.706667 11.946667-4.664889l299.576889-299.576889c6.371556-7.054222 6.257778-17.749333-0.568889-24.462222-3.299556-3.299556-7.736889-5.233778-12.515556-5.233778-4.437333 0-8.647111 1.706667-11.946666 4.664889L499.370667 505.856z" fill="#2c2c2c" p-id="3813"></path></svg>